<?xml version="1.0" encoding="UTF-8"?>
<svg version="1.1" xmlns="http://www.w3.org/2000/svg" width="2561" height="2561">
<path d="M0 0 C1.24716797 0.04850098 2.49433594 0.09700195 3.77929688 0.14697266 C48.41664725 1.95426898 92.97943982 7.54917976 137 15 C137.87199036 15.14590576 138.74398071 15.29181152 139.64239502 15.44213867 C182.58185501 22.63289511 225.33291187 32.34233177 267 45 C267.66511597 45.20113403 268.33023193 45.40226807 269.01550293 45.60949707 C280.05076115 48.94874847 291.03829763 52.42704473 302 56 C302.74296326 56.24171936 303.48592651 56.48343872 304.25140381 56.73248291 C376.62654214 80.32706414 447.23374855 111.56489217 513 150 C514.08506836 150.63292969 515.17013672 151.26585937 516.28808594 151.91796875 C580.56890549 189.47047324 642.45259281 232.76827672 697.60546875 282.890625 C700.19816107 285.17456277 702.86747238 287.3380138 705.5625 289.5 C709.96328967 293.05782151 713.95241779 296.84393504 717.8984375 300.89453125 C719.80438122 302.80401762 721.75780854 304.56643503 723.8125 306.3125 C727.90786208 309.81930705 731.67577532 313.61574437 735.43676758 317.47387695 C738.13111406 320.21578956 740.89484866 322.80761867 743.80859375 325.31640625 C748.43431694 329.3197954 752.74929828 333.60234815 757.0625 337.9375 C757.82626953 338.69740234 758.59003906 339.45730469 759.37695312 340.24023438 C763.5374955 344.40789487 767.50757183 348.66918463 771.34936523 353.13110352 C773.93348678 356.05692076 776.70940717 358.77296366 779.5 361.5 C783.55991871 365.51450189 787.49555189 369.55695534 791.1953125 373.91015625 C793.57110093 376.66133982 796.03608529 379.32807641 798.5 382 C805.57378473 389.69158252 812.37453527 397.58965342 819.109375 405.578125 C820.98659341 407.80400578 822.87177113 410.02263385 824.765625 412.234375 C830.86197301 419.3658287 836.73578576 426.64133 842.48730469 434.05322266 C844.11443022 436.14726704 845.74822757 438.23599267 847.3828125 440.32421875 C858.5819059 454.64871257 869.53993796 469.12607476 880 484 C880.57733887 484.81823242 881.15467773 485.63646484 881.74951172 486.47949219 C891.82660799 500.77929778 901.58193817 515.25771319 911 530 C911.60666504 530.9492334 912.21333008 531.8984668 912.83837891 532.87646484 C927.64768669 556.13136776 941.52215407 579.88135061 954.49560547 604.20605469 C955.95385256 606.91429547 957.44080642 609.60409462 958.94140625 612.2890625 C1000.6165639 687.01405772 1030.73384367 769.39126133 1089.91143799 1100.91369629 C1089.99594726 1102.90452736 1090.08549337 1104.89514273 1090.17529297 1106.88574219 C1094.13402907 1195.90444303 1086.36391994 1285.61712775 1010 1570 C1009.53658203 1571.15064941 1009.07316406 1572.30129883 1008.59570312 1573.48681641 C982.55349961 1638.10113138 950.73375908 1700.42682552 913 1759 C912.52191895 1759.74459473 912.04383789 1760.48918945 911.55126953 1761.25634766 C908.38665151 1766.183457 905.20223738 1771.09726415 902 1776 C901.34902344 1776.99773437 900.69804687 1777.99546875 900.02734375 1779.0234375 C885.56509185 1800.94710599 870.10318601 1822.25700002 854 1843 C853.52852539 1843.6079541 853.05705078 1844.2159082 852.57128906 1844.84228516 C845.66440292 1853.73202116 838.59006244 1862.48251357 831.46777344 1871.20019531 C830.18503868 1872.77310294 828.90840587 1874.35098284 827.6328125 1875.9296875 C818.83350597 1886.79183512 809.62386311 1897.30136022 800.1796875 1907.60546875 C798.33754968 1909.62917929 796.53511863 1911.67624279 794.75 1913.75 C786.67649249 1923.0259448 778.19915978 1931.99079828 769.37890625 1940.55859375 C767.41549706 1942.57358676 765.57768739 1944.62117568 763.7421875 1946.75 C759.86815179 1951.21323475 755.75145609 1955.39616654 751.5625 1959.5625 C750.49418945 1960.63661133 750.49418945 1960.63661133 749.40429688 1961.73242188 C745.35114304 1965.77821304 741.19228577 1969.62459603 736.85522461 1973.36303711 C734.10882555 1975.7863304 731.55567854 1978.37879124 729 1981 C725.18593945 1984.86107424 721.32532878 1988.57258008 717.19140625 1992.09375 C714.23472091 1994.66569732 711.37158457 1997.33379057 708.5 2000 C701.22917734 2006.73491511 693.77505612 2013.21455876 686.19702148 2019.60180664 C683.29753208 2022.04725399 680.40941083 2024.50413944 677.54296875 2026.98828125 C669.54798725 2033.91291788 661.37202929 2040.53746647 653 2047 C651.98808594 2047.78632813 650.97617188 2048.57265625 649.93359375 2049.3828125 C619.63574645 2072.83172114 588.45534719 2094.89279336 556.21240234 2115.57910156 C554.74510266 2116.52146353 553.27926321 2117.4661033 551.81494141 2118.41308594 C479.92979193 2164.86980042 401.33204501 2201.29132415 218 2260 C216.34460205 2260.41064697 216.34460205 2260.41064697 214.65576172 2260.82958984 C133.95408192 2280.67274955 50.16299947 2292.3053317 -33 2293 C-33.8544873 2293.00753296 -34.70897461 2293.01506592 -35.58935547 2293.02282715 C-50.39368261 2293.14561185 -65.19579047 2293.13051043 -80 2293 C-80.74749512 2292.9937561 -81.49499023 2292.98751221 -82.26513672 2292.9810791 C-175.67098212 2292.11824563 -269.28818092 2277.02797665 -529.94775391 2190.93951416 C-531.9424802 2190.02633245 -533.93951173 2189.11842166 -535.9375 2188.21240234 C-563.03875265 2175.91283855 -589.51976221 2162.42649155 -615.29931641 2147.54736328 C-618.05670033 2145.96751341 -620.82816998 2144.41563891 -623.60546875 2142.87109375 C-656.99607838 2124.28028971 -688.91776646 2103.21425419 -720 2081 C-720.77859375 2080.44521973 -721.5571875 2079.89043945 -722.359375 2079.31884766 C-732.0585634 2072.39906312 -741.5968337 2065.31623909 -751 2058 C-752.57044428 2056.80253624 -754.14089707 2055.60508313 -755.7121582 2054.40869141 C-763.33307478 2048.59331006 -770.76736081 2042.55647723 -778.18408203 2036.48388672 C-779.76299721 2035.19366805 -781.34778627 2033.91064412 -782.93359375 2032.62890625 C-793.78877029 2023.83831009 -804.28679668 2014.6325026 -814.5859375 2005.19921875 C-816.72339583 2003.25198729 -818.88172802 2001.33590111 -821.0625 1999.4375 C-837.62972722 1985.0036783 -853.39730278 1969.77052688 -868.91235352 1954.21801758 C-871.58690335 1951.53804719 -874.26683976 1948.86354516 -876.94726562 1946.18945312 C-878.67480033 1944.46125848 -880.40202526 1942.73275411 -882.12890625 1941.00390625 C-883.3118502 1939.82399864 -883.3118502 1939.82399864 -884.51869202 1938.62025452 C-888.6994197 1934.42192424 -892.71911437 1930.14328273 -896.5738678 1925.6428833 C-898.24588757 1923.71674114 -900.02530132 1921.94265853 -901.875 1920.1875 C-905.75581389 1916.36616219 -909.11063407 1912.23277857 -912.515625 1907.98828125 C-915.23706997 1904.71484509 -918.08980144 1901.60460917 -921 1898.5 C-925.44489187 1893.74813082 -929.65382552 1888.8763857 -933.73046875 1883.80078125 C-935.77885068 1881.27291578 -937.86750953 1878.79029809 -939.98144531 1876.31762695 C-945.67134508 1869.66179992 -951.12872995 1862.85120432 -956.49609375 1855.93359375 C-958.09512203 1853.87770025 -959.70320039 1851.82911162 -961.3125 1849.78125 C-973.4840988 1834.26207587 -985.1355303 1818.38803805 -996.4375 1802.22607422 C-998.09522626 1799.86433234 -999.76552886 1797.51183217 -1001.4375 1795.16015625 C-1008.81880257 1784.74750124 -1015.82225193 1774.16904817 -1022.54980469 1763.32373047 C-1023.96836881 1761.05068446 -1025.40580862 1758.79098812 -1026.8515625 1756.53515625 C-1050.75679274 1719.19032454 -1072.94090366 1680.19815947 -1091.61962891 1639.96386719 C-1093.10055561 1636.78409177 -1094.60217404 1633.61457015 -1096.10546875 1630.4453125 C-1133.10363369 1552.09855101 -1160.32633097 1469.28390386 -1201.8999939 1204.31536865 C-1201.97256049 1202.63528709 -1202.04798717 1200.95532828 -1202.12515259 1199.27545166 C-1203.01744723 1179.59685651 -1203.2026942 1159.94431726 -1203.1875 1140.25 C-1203.18709969 1139.08171473 -1203.18709969 1139.08171473 -1203.18669128 1137.88982773 C-1203.17624801 1113.54332878 -1202.92871504 1089.28189857 -1201 1065 C-1200.90171906 1063.73515778 -1200.90171906 1063.73515778 -1200.80145264 1062.44476318 C-1198.70247708 1035.52729392 -1195.83198626 1008.72599692 -1192 982 C-1191.87838501 981.14915833 -1191.75677002 980.29831665 -1191.63146973 979.42169189 C-1181.32308998 907.69241026 -1163.68860099 837.4524328 -1140 769 C-1139.77934875 768.36080627 -1139.55869751 767.72161255 -1139.33135986 767.06304932 C-1126.33724157 729.45208607 -1110.93357321 692.98736737 -1094 657 C-1093.52771973 655.99227539 -1093.05543945 654.98455078 -1092.56884766 653.94628906 C-1081.21817113 629.78183886 -1069.1987282 605.87812265 -1055.67236328 582.8515625 C-1054.09941317 580.16951034 -1052.53700831 577.48151828 -1050.97753906 574.79161072 C-1038.94699894 554.0456559 -1026.27887221 533.84518588 -1013 513.875 C-1012.49693329 513.11758514 -1011.99386658 512.36017029 -1011.47555542 511.57980347 C-1004.16653385 500.58699809 -996.66359879 489.74831084 -989 479 C-988.34499512 478.07767578 -987.68999023 477.15535156 -987.01513672 476.20507812 C-980.35681608 466.84743832 -973.51945494 457.67169524 -966.3515625 448.69873047 C-964.47938726 446.34566051 -962.62932245 443.97555738 -960.77783203 441.60620117 C-953.40942072 432.18473965 -945.83607491 422.94751347 -938.0859375 413.83789062 C-935.17412087 410.40959255 -932.32236523 406.94025685 -929.5 403.4375 C-925.85525225 398.95315857 -922.01882115 394.70263874 -918.08154297 390.47802734 C-915.11514008 387.27604805 -912.33528457 383.982621 -909.625 380.5625 C-905.65325711 375.61925165 -901.32598154 371.17360622 -896.77978516 366.76586914 C-894.02270243 364.08129606 -891.40806989 361.34955134 -888.91235352 358.41894531 C-884.55461758 353.41471754 -879.88725392 348.74363172 -875.19140625 344.05859375 C-874.26585434 343.13208511 -873.34030243 342.20557648 -872.38670349 341.25099182 C-870.43935145 339.30217639 -868.49023087 337.35515263 -866.53979492 335.40942383 C-864.06103605 332.93636139 -861.58679569 330.45883467 -859.1138773 327.97993374 C-856.72549855 325.58703799 -854.3332792 323.19799682 -851.94140625 320.80859375 C-851.0640834 319.92924667 -850.18676056 319.0498996 -849.28285217 318.14390564 C-844.90275173 313.78028708 -840.47001079 309.5464888 -835.76976013 305.5282135 C-832.59051403 302.78288846 -829.55635937 299.88046814 -826.5 297 C-821.41400209 292.23347275 -816.30341454 287.52493167 -811 283 C-809.96722944 282.11353572 -808.93470072 281.22678965 -807.90234375 280.33984375 C-805.50489645 278.28116249 -803.10481054 276.2256098 -800.703125 274.171875 C-798.31201971 272.12629068 -795.92660396 270.07443051 -793.546875 268.015625 C-779.98846214 256.2993878 -766.06275119 245.19038423 -751.68359375 234.49609375 C-747.87889927 231.66520629 -744.11779768 228.7871137 -740.375 225.875 C-726.31708502 215.02673653 -711.71503874 204.93029453 -697 195 C-696.33371582 194.55027832 -695.66743164 194.10055664 -694.98095703 193.63720703 C-662.35095178 171.65918003 -628.75226773 151.45206454 -594 133 C-593.07719238 132.50967285 -592.15438477 132.0193457 -591.20361328 131.51416016 C-584.49442374 127.95972476 -577.75458086 124.46728835 -571 121 C-569.34266846 120.14583496 -569.34266846 120.14583496 -567.65185547 119.27441406 C-496.01842393 82.47320088 -419.39539139 54.50011507 -112 0 C-110.70239746 -0.05784668 -109.40479492 -0.11569336 -108.06787109 -0.17529297 C-72.08819832 -1.69340361 -35.97536631 -1.55286075 0 0 Z M-140.64794922 140.78186035 C-143.81730411 141.07580042 -146.98949359 141.32750548 -150.16235352 141.58027649 C-242.34180309 148.99877189 -333.5494373 171.91945694 -478 230 C-479.14903809 230.54140625 -480.29807617 231.0828125 -481.48193359 231.640625 C-488.68123554 235.03991556 -495.85009809 238.49810662 -503 242 C-503.9384375 242.45826172 -504.876875 242.91652344 -505.84375 243.38867188 C-519.77689995 250.21010987 -533.45513942 257.43800887 -547 265 C-547.84320801 265.46986328 -548.68641602 265.93972656 -549.55517578 266.42382812 C-607.19485572 298.65632268 -661.17641699 336.7928327 -711.40087891 379.63916016 C-713.05849996 381.04978302 -714.72229828 382.45287789 -716.38671875 383.85546875 C-723.97606023 390.2754136 -731.2974024 396.93287051 -738.53125 403.75 C-741.39488059 406.44554793 -744.30636546 409.07921623 -747.25 411.6875 C-751.82151806 415.76541561 -756.11186297 420.09278981 -760.4140625 424.44921875 C-762.54770394 426.55385298 -764.70632076 428.51361802 -767 430.4375 C-770.89991549 433.76553379 -774.29162479 437.50415279 -777.71386719 441.30737305 C-780.95677977 444.89997858 -784.3020011 448.35432459 -787.75 451.75 C-791.32881384 455.29352976 -794.734395 458.88794414 -798 462.71875 C-800.16929285 465.19309966 -802.40914746 467.58961272 -804.66162109 469.98803711 C-809.96968699 475.64024236 -815.04935549 481.3766495 -819.8984375 487.43359375 C-821.98001427 489.97559363 -824.1503838 492.39529335 -826.375 494.8125 C-830.43626167 499.26929324 -834.15413522 503.92962968 -837.84545898 508.69116211 C-840.79644135 512.4915842 -843.82513535 516.2040058 -846.9375 519.875 C-857.6745565 532.67817778 -867.28869052 546.41419969 -877 560 C-877.52126465 560.72896484 -878.0425293 561.45792969 -878.57958984 562.20898438 C-930.0347354 634.30104783 -971.70973224 713.40819686 -1064.25 1098.6875 C-1064.31179947 1099.90188751 -1064.31179947 1099.90188751 -1064.37484741 1101.14080811 C-1064.91856233 1112.10139248 -1065.1213409 1123.02725688 -1065 1134 C-1064.9851355 1135.36760971 -1064.9851355 1135.36760971 -1064.9699707 1136.7628479 C-1063.93063194 1226.04554938 -1054.65965041 1313.62345036 -960.89251709 1591.18243408 C-960.00102093 1592.99792093 -959.11268066 1594.81492146 -958.22509766 1596.63232422 C-950.80837398 1611.80472094 -943.02395136 1626.67623993 -934.56152344 1641.29150391 C-933.01694263 1643.97061265 -931.49349314 1646.66062222 -929.9765625 1649.35546875 C-919.37842204 1668.15682715 -907.89479237 1686.28934483 -895.9375 1704.25 C-895.43665894 1705.00314484 -894.93581787 1705.75628967 -894.4197998 1706.53225708 C-884.63777826 1721.22390848 -874.65862113 1735.77045756 -863.875 1749.75 C-863.19687256 1750.63413574 -862.51874512 1751.51827148 -861.82006836 1752.42919922 C-860.48508638 1754.169015 -859.14880811 1755.90783714 -857.81103516 1757.64550781 C-856.22685888 1759.70506511 -854.64863925 1761.76892053 -853.07421875 1763.8359375 C-845.6922574 1773.51491194 -837.97336161 1782.88915388 -830.08837891 1792.15966797 C-827.15728781 1795.61120446 -824.28292489 1799.10209299 -821.4375 1802.625 C-817.63303994 1807.30060655 -813.64448347 1811.77204904 -809.5546875 1816.19921875 C-807.55492918 1818.39161434 -805.59475099 1820.60456319 -803.6484375 1822.84375 C-800.09852593 1826.9131725 -796.44795419 1830.87759706 -792.75 1834.8125 C-792.1003125 1835.50537109 -791.450625 1836.19824219 -790.78125 1836.91210938 C-786.06746805 1841.91818292 -781.24212551 1846.78759338 -776.34765625 1851.6171875 C-774.27485308 1853.72103099 -772.34271809 1855.8705656 -770.4375 1858.125 C-767.17123564 1861.94854169 -763.51718933 1865.19016677 -759.74609375 1868.5078125 C-756.68492775 1871.28594039 -753.77700464 1874.18282288 -750.875 1877.125 C-747.12124255 1880.92111297 -743.31381907 1884.57632121 -739.24609375 1888.03515625 C-736.7825208 1890.19024702 -734.39978247 1892.41883314 -732.01416016 1894.65942383 C-726.36619624 1899.96392028 -720.63374149 1905.04003427 -714.58203125 1909.88671875 C-711.95578232 1912.03619026 -709.44366547 1914.27460088 -706.9375 1916.5625 C-703.00482867 1920.13765575 -698.96764535 1923.50891266 -694.79296875 1926.796875 C-692.76262665 1928.39843157 -690.7459513 1930.01117784 -688.73828125 1931.640625 C-679.17917738 1939.38322191 -669.392817 1946.79722186 -659.515625 1954.12841797 C-657.11853411 1955.91181265 -654.73027173 1957.70640487 -652.34375 1959.50390625 C-640.74353442 1968.19913167 -628.777392 1976.27273416 -616.66748047 1984.23876953 C-614.39554562 1985.73883708 -612.13346118 1987.25134987 -609.87890625 1988.77734375 C-592.40240596 2000.60402247 -574.26007395 2011.4347138 -556 2022 C-555.06736328 2022.54253418 -554.13472656 2023.08506836 -553.17382812 2023.64404297 C-520.64670117 2042.46362474 -486.60665725 2059.35729925 -452 2074 C-450.9279834 2074.45552246 -449.8559668 2074.91104492 -448.75146484 2075.38037109 C-371.56666191 2107.97565509 -290.36732826 2130.99858986 -79.60546875 2154.203125 C-77.89714026 2154.2101506 -76.18881201 2154.21723738 -74.48048401 2154.22438049 C-69.04948546 2154.24377597 -63.61852969 2154.24881533 -58.1875 2154.25 C-57.26054825 2154.25044186 -56.3335965 2154.25088371 -55.3785553 2154.25133896 C-27.38364507 2154.25833251 0.44647875 2153.95101746 28.3347168 2151.25646973 C31.16061796 2150.98454437 33.98741599 2150.72370259 36.81445312 2150.46386719 C63.37924347 2147.99670324 89.7243092 2144.6177471 116 2140 C117.13930969 2139.8014743 117.13930969 2139.8014743 118.30163574 2139.59893799 C201.09915579 2125.15344113 281.92043267 2100.12621908 446.83300781 2019.87695312 C450.12993446 2017.9229929 453.43527243 2015.98387707 456.7421875 2014.046875 C478.19166511 2001.45643405 499.02385368 1988.21831184 519.34472656 1973.87353516 C521.82722488 1972.12190845 524.31487326 1970.37792399 526.8046875 1968.63671875 C534.9864581 1962.90528081 543.06173932 1957.06602939 551 1951 C551.79615723 1950.39309326 551.79615723 1950.39309326 552.60839844 1949.77392578 C559.8151887 1944.27689896 566.95298778 1938.70095371 574 1933 C574.58652344 1932.52691406 575.17304687 1932.05382813 575.77734375 1931.56640625 C587.66145838 1921.97781477 599.44561289 1912.30693108 610.75 1902.03515625 C612.74989375 1900.22622457 614.77269432 1898.45108199 616.8125 1896.6875 C622.06182567 1892.11008801 627.15145064 1887.35913473 632.25244141 1882.61816406 C633.92588235 1881.06862975 635.60813594 1879.5293158 637.29296875 1877.9921875 C645.73863213 1870.24719779 653.88950956 1862.2176694 662 1854.125 C662.54265503 1853.58493317 663.08531006 1853.04486633 663.64440918 1852.48843384 C669.13813159 1847.01540283 674.54885601 1841.52211461 679.59082031 1835.62304688 C681.41089795 1833.52674124 683.36900553 1831.60510774 685.375 1829.6875 C689.45915485 1825.65853643 693.03478656 1821.36159936 696.6171875 1816.88671875 C699.14697656 1813.82194151 701.79235155 1810.9064782 704.5 1808 C708.75882979 1803.41752856 712.77981471 1798.70053171 716.703125 1793.82421875 C718.72543847 1791.33759861 720.79190937 1788.89692001 722.88232422 1786.4675293 C729.34795553 1778.93891219 735.36260576 1771.10184546 741.34277344 1763.18505859 C742.97084659 1761.03843887 744.61160939 1758.90227004 746.2578125 1756.76953125 C766.69541092 1730.28353758 785.52813002 1702.53097487 803 1674 C803.5563916 1673.09540039 804.1127832 1672.19080078 804.68603516 1671.25878906 C840.93505959 1612.1564783 870.93831369 1549.43443998 894.23431396 1484.14343262 C894.99595153 1482.01133314 895.76249613 1479.88104788 896.52978516 1477.75097656 C905.12803382 1453.81540914 912.36625915 1429.54844642 919 1405 C919.21076172 1404.22096313 919.42152344 1403.44192627 919.63867188 1402.63928223 C935.28778958 1344.5729826 945.03359253 1284.68327465 949.75 1224.75 C949.80916595 1224.00000732 949.86833191 1223.25001465 949.92929077 1222.47729492 C950.32916091 1217.32071802 950.67846554 1212.16201623 951 1207 C951.0483902 1206.24892975 951.0967804 1205.4978595 951.14663696 1204.72402954 C952.2304636 1187.39257172 952.20111544 1170.04505754 952.1875 1152.6875 C952.18723312 1151.92491505 952.18696625 1151.16233009 952.18669128 1150.37663651 C952.1759375 1125.87064306 951.89445279 1101.44407302 950 1077 C949.93447937 1076.14519043 949.86895874 1075.29038086 949.80145264 1074.40966797 C943.46947284 992.56729763 928.44791877 912.10318981 903 834 C902.75378906 833.24416626 902.50757812 832.48833252 902.25390625 831.70959473 C881.92297575 769.4962786 855.54762962 708.21280371 822.53271484 651.65087891 C820.90649731 648.83828414 819.31853965 646.00662444 817.73828125 643.16796875 C811.37857764 631.74985907 804.75765516 620.57884378 797.66894531 609.59912109 C795.81235406 606.70777082 793.97958715 603.80205723 792.1484375 600.89453125 C784.63321482 588.99580581 776.87595342 577.39601536 768.51611328 566.07666016 C766.51621601 563.33734838 764.57832762 560.55717056 762.640625 557.77368164 C752.65166215 543.43300832 741.96231516 529.60698075 731 516 C730.45375977 515.3201001 729.90751953 514.6402002 729.34472656 513.93969727 C719.54286203 501.75539216 709.51384413 489.80036312 699.00390625 478.21875 C697.18688018 476.20691607 695.40055608 474.17339566 693.625 472.125 C689.34547447 467.21872474 684.93812405 462.43059194 680.52001953 457.64941406 C679.02703352 456.0293348 677.54253129 454.40180314 676.05859375 452.7734375 C668.29347064 444.30405562 660.23958689 436.13246693 652.125 428 C651.5850238 427.45743561 651.04504761 426.91487122 650.4887085 426.35586548 C645.03198207 420.87850969 639.57541289 415.44652795 633.66552734 410.45117188 C631.85789134 408.8761809 630.1782786 407.21146984 628.5 405.5 C625.51127663 402.46405075 622.38293521 399.65491341 619.15625 396.875 C616.80037042 394.82640906 614.4949254 392.72796998 612.1875 390.625 C607.91689849 386.76977614 603.51226331 383.12417485 599.0390625 379.5078125 C595.5294179 376.61167904 592.10986944 373.62313412 588.6875 370.625 C582.18377578 364.94651677 575.50587079 359.54717862 568.66455078 354.28222656 C567.07264252 353.05595754 565.48732658 351.8211448 563.90234375 350.5859375 C554.40159007 343.21114261 544.72513104 336.07543275 535 329 C534.34676758 328.52401367 533.69353516 328.04802734 533.02050781 327.55761719 C510.96619986 311.55925282 488.09758485 296.45057178 464.65332031 282.57373047 C461.96656703 280.98017032 459.29123099 279.36868785 456.6171875 277.75390625 C442.66074007 269.36444118 428.40237147 261.5939397 414 254 C412.88399414 253.41041504 411.76798828 252.82083008 410.61816406 252.21337891 C375.34306928 233.62107801 339.28960638 217.125088 302 203 C300.83388184 202.55591797 299.66776367 202.11183594 298.46630859 201.65429688 C216.82300267 170.69421087 131.10423904 150.55494835 44.1875 142.1875 C43.16248383 142.08813141 42.13746765 141.98876282 41.08139038 141.88638306 C33.72638748 141.18372296 26.36675998 140.56563776 19 140 C17.79575378 139.9067746 16.59150757 139.81354919 15.35076904 139.71749878 C-7.27473478 138.02121023 -29.83495451 137.6358462 -52.51826477 137.68214417 C-55.29468929 137.68758762 -58.07110527 137.68995266 -60.84753418 137.6920166 C-87.54576394 137.72293124 -114.05439255 138.22754455 -140.64794922 140.78186035 Z " fill="#FEFEFE" transform="translate(1336,134)"/>
<path d="M0 0 C1.0734668 0.01788574 2.14693359 0.03577148 3.25292969 0.05419922 C75.02866388 1.39424768 145.36656741 14.26842515 200 64 C201.47497427 65.31720962 202.95380932 66.63011626 204.4375 67.9375 C205.05496094 68.48277344 205.67242188 69.02804687 206.30859375 69.58984375 C210.07796192 72.73243477 212.17321102 73.25225954 217.00028515 73.26564884 C218.2623139 73.27394783 219.52434265 73.28224682 220.8246147 73.29079729 C222.23302676 73.2899277 223.6414387 73.28885905 225.04985046 73.28761292 C226.53991934 73.29349437 228.02998505 73.30023287 229.52004653 73.30775779 C233.62520299 73.32586921 237.73029526 73.33135626 241.83548677 73.33474457 C246.25896352 73.34049341 250.68239881 73.35761821 255.10585022 73.37309265 C265.79363332 73.40787621 276.48141309 73.42343507 287.16924044 73.43721595 C292.20049945 73.44417391 297.23175432 73.4533314 302.26301003 73.46232414 C318.98490493 73.49153143 335.70679579 73.51632478 352.4287138 73.52694798 C353.49937121 73.52763867 354.57002863 73.52832936 355.6731302 73.52904099 C356.7463734 73.529733 357.8196166 73.53042502 358.92538232 73.531138 C361.10023861 73.53255 363.27509489 73.53397082 365.44995117 73.53540039 C367.06816251 73.53645815 367.06816251 73.53645815 368.71906499 73.53753727 C386.19905958 73.54978727 403.67883727 73.59257976 421.15874185 73.64834059 C439.09895864 73.70510583 457.03906574 73.73559711 474.97937328 73.73996013 C485.05468859 73.74304362 495.12970268 73.75757149 505.20493126 73.80124092 C513.78472321 73.83832356 522.3641324 73.85153343 530.94399299 73.83353604 C535.32190059 73.8250764 539.69902642 73.82795346 544.07683182 73.86135483 C548.08621494 73.89167454 552.09423712 73.88957727 556.10362706 73.86186682 C557.55254111 73.85752523 559.00154959 73.86497969 560.45032426 73.88553984 C569.82022626 74.06989071 569.82022626 74.06989071 577.73029804 69.61817837 C578.84539566 68.43537654 579.93804529 67.2307376 581 66 C581.98773478 65.07141381 582.98558074 64.15326485 584 63.25390625 C584.48178711 62.81739746 584.96357422 62.38088867 585.45996094 61.93115234 C623.32555445 28.27951676 672.3962048 10.40497086 721.875 3.25 C722.98246582 3.08908875 722.98246582 3.08908875 724.11230469 2.92492676 C741.63219393 0.41107628 758.94407331 -0.20652368 776.625 -0.1875 C777.66157745 -0.18689575 778.69815491 -0.1862915 779.7661438 -0.18566895 C868.35538247 -0.04578626 942.99171794 29.82897812 1006 92 C1009.10147571 95.25176749 1012.05424022 98.60791298 1015 102 C1016.62336071 103.75152077 1018.24844093 105.501449 1019.875 107.25 C1083.9217807 177.81001263 1114.64157588 273.89821832 1124.49311829 392.77316284 C1125.22514971 416.3817547 1126.226521 439.65504665 1130 463 C1130.17499023 464.08658905 1130.17499023 464.08658905 1130.35351562 465.19512939 C1132.35164341 477.50469341 1134.6158995 489.75985646 1137 502 C1137.1579303 502.81263306 1137.3158606 503.62526611 1137.47857666 504.46252441 C1143.84110071 537.0721902 1151.67887079 569.344514 1159.46582317 601.63597298 C1179.20077097 683.47782645 1179.20077097 683.47782645 1187 720 C1187.29200287 721.36333466 1187.29200287 721.36333466 1187.58990479 722.75421143 C1222.48005328 885.84817684 1222.48005328 885.84817684 1185.90576172 945.79345703 C1183.51908035 949.41338465 1180.82510527 952.71689211 1178 956 C1177.55285645 956.52787109 1177.10571289 957.05574219 1176.64501953 957.59960938 C1157.39433651 980.14795488 1132.26407934 992.84680097 1103 997 C1101.70320313 997.18433594 1100.40640625 997.36867188 1099.0703125 997.55859375 C1071.96777669 1000.8386017 1042.7627175 994.60969749 1017.28613281 985.78710938 C1014.98710961 984.99556187 1012.67893833 984.23784888 1010.3671875 983.484375 C975.9436643 972.08417028 942.88331314 955.30859198 911.5546875 937.171875 C905.11992056 933.45941943 898.56046309 929.98320305 892 926.5 C883.54377638 922.00984107 875.16739569 917.41220833 866.875 912.625 C858.25384485 907.65914093 849.44212959 903.20184516 840.51272583 898.82809448 C825.09661127 891.27431168 810.46100125 882.93371792 795.921875 873.81542969 C791.9714958 871.36096614 787.96288808 869.01607486 783.9375 866.6875 C775.71950213 861.89659062 767.68886236 856.82567749 759.67382812 851.70410156 C756.80358042 849.87481659 753.92553659 848.05820012 751.046875 846.2421875 C737.58169661 837.72062911 724.40694926 828.86304756 711.38671875 819.67724609 C708.3590549 817.54958134 705.30564277 815.46225093 702.25 813.375 C673.57945631 793.53196582 646.02572253 771.79730835 620.44140625 748.09765625 C619.63574219 747.40542969 618.83007812 746.71320312 618 746 C617.54615616 745.50834821 617.09231231 745.01669641 616.62471563 744.51014608 C609.82902277 738.0967441 601.28816372 739.1557277 592.55973816 739.21791077 C590.76224586 739.2088451 588.96476512 739.19717607 587.16730481 739.18313307 C582.23533017 739.1522792 577.30400941 739.15884127 572.37198102 739.17167485 C567.05004463 739.17907429 561.728266 739.15203701 556.40638733 739.12956238 C545.98291631 739.09130783 535.55967709 739.08594196 525.1361477 739.09296317 C516.66338914 739.09831185 508.19070096 739.0930656 499.71795082 739.08028984 C498.51215319 739.07850427 497.30635556 739.07671871 496.06401861 739.07487903 C493.61444192 739.07124378 491.16486523 739.06760138 488.71528856 739.0639519 C465.74103478 739.0313198 442.76691309 739.03781534 419.79265187 739.05610644 C398.77774759 739.07161297 377.76326054 739.03785165 356.7484388 738.98081178 C335.16824607 738.9226866 313.58825075 738.89790687 292.00797921 738.90918154 C279.8931568 738.91491945 267.77868946 738.90743753 255.66393089 738.86503792 C245.34989221 738.82930582 235.03642713 738.82507014 224.7223806 738.86140842 C219.46097201 738.87908278 214.20061269 738.88235534 208.93927383 738.84640121 C204.11922721 738.81384585 199.30110661 738.82310078 194.48115043 738.86518627 C192.74096405 738.87313395 191.0006271 738.86600433 189.26058843 738.84197868 C179.35891372 738.71478894 172.69122858 739.4822101 165.17034799 746.68009371 C164.45413315 747.44566278 163.73791832 748.21123186 163 749 C162.28417871 749.71559383 161.56835742 750.43118766 160.83084458 751.16846615 C159.56830838 752.43147767 158.31532132 753.70408253 157.0703125 754.984375 C153.90813319 758.06302505 150.47155478 760.77144507 147.03125 763.53125 C144.34042226 765.72274888 141.71556006 767.96627422 139.10107422 770.24682617 C125.11848518 782.42374282 110.09266938 793.25340403 95 804 C93.89857666 804.78914795 93.89857666 804.78914795 92.77490234 805.59423828 C64.19566248 826.04549481 34.34411744 844.68596857 4.40625 863.0625 C-0.36195497 865.99024581 -5.12130087 868.93172521 -9.87402344 871.88452148 C-14.24413524 874.59813738 -18.62155398 877.29985826 -23 880 C-24.05380859 880.65081543 -25.10761719 881.30163086 -26.19335938 881.97216797 C-42.29261849 891.89601884 -58.5669077 901.35494175 -75.15771484 910.43701172 C-78.81148255 912.44623873 -82.43803668 914.50108346 -86.0625 916.5625 C-96.28752479 922.34904492 -106.66518007 927.8597641 -117.02392578 933.40185547 C-119.51062655 934.73720766 -121.98995363 936.08435791 -124.46484375 937.44140625 C-177.14059848 966.15595038 -234.8876723 986.88752431 -294 997 C-295.04913574 997.18264404 -296.09827148 997.36528809 -297.17919922 997.5534668 C-322.3823821 1001.54313457 -350.67232389 992.23928078 -371.00537109 977.53515625 C-399.23079677 956.22781049 -414.6950488 926.63686719 -419.85546875 891.95874023 C-421.00179718 883.64075907 -421.80639206 875.40090118 -422 867 C-422.02046387 866.29262695 -422.04092773 865.58525391 -422.06201172 864.85644531 C-424.29191996 779.75135218 -398.08928981 693.73538962 -378.15303326 611.79745007 C-370.80589485 581.59658401 -363.53804923 551.3887421 -357 521 C-356.73467468 519.76881439 -356.73467468 519.76881439 -356.46398926 518.51275635 C-352.72054236 501.08553488 -349.49556235 483.6021447 -346.6875 466 C-346.56385071 465.22947296 -346.44020142 464.45894592 -346.31280518 463.66506958 C-343.24281923 444.38257971 -341.71961905 425.35442964 -341.16711426 405.83389282 C-338.41378062 311.50972649 -316.01147389 219.61954508 -262 141 C-261.48614746 140.25121582 -260.97229492 139.50243164 -260.44287109 138.73095703 C-252.18443495 126.74624816 -243.44273737 115.504512 -233.5546875 104.80078125 C-231.55997747 102.61392026 -229.61410928 100.40333038 -227.6796875 98.1640625 C-224.02196305 93.97302269 -220.18505854 89.9927667 -216.25 86.0625 C-215.5497168 85.36302246 -214.84943359 84.66354492 -214.12792969 83.94287109 C-209.48500291 79.35427871 -204.75430091 75.09054181 -199.6171875 71.05859375 C-196.80042107 68.84301776 -194.09504877 66.52054996 -191.375 64.1875 C-177.89032628 52.97338188 -163.16911566 43.74554238 -148 35 C-147.36980957 34.6292334 -146.73961914 34.2584668 -146.09033203 33.87646484 C-112.98565687 14.48115082 -73.11328963 3.7751992 -35 1 C-34.2467041 0.94360352 -33.4934082 0.88720703 -32.71728516 0.82910156 C-21.81197082 0.04367726 -10.93133524 -0.20316267 0 0 Z M-139.56835938 134.68310547 C-140.88559023 135.89476018 -142.23069527 137.07592602 -143.578125 138.25390625 C-155.64525558 148.82237707 -166.46570295 160.10855611 -176 173 C-176.5141748 173.68578125 -177.02834961 174.3715625 -177.55810547 175.078125 C-185.72646354 185.99217027 -193.18594661 197.19328227 -200 209 C-200.4832373 209.8348291 -200.96647461 210.6696582 -201.46435547 211.52978516 C-227.63695658 257.13807638 -242.97664653 308.2446659 -249.3125 360.3125 C-249.39399292 360.97866333 -249.47548584 361.64482666 -249.55944824 362.33117676 C-251.3368961 377.11510159 -252.04175068 391.85570973 -252.28979492 406.73217773 C-253.55699777 482.02715441 -271.82889132 554.95299344 -289.85546875 627.66796875 C-290.1157744 628.71834194 -290.37608006 629.76871513 -290.64427376 630.85091782 C-293.27906848 641.48168485 -295.91725069 652.11156883 -298.5729351 662.73713875 C-311.29054016 713.32652838 -311.29054016 713.32652838 -321.3125 764.5 C-321.55373093 765.91246002 -321.55373093 765.91246002 -321.79983521 767.35345459 C-324.72860217 784.50354339 -327.21257071 801.69134925 -329 819 C-329.1023999 819.94270752 -329.2047998 820.88541504 -329.31030273 821.85668945 C-330.1406216 830.37242207 -330.18613794 838.87819184 -330.18530273 847.42651367 C-330.18749317 849.92969689 -330.20573004 852.43244086 -330.22460938 854.93554688 C-330.28992452 873.11856416 -328.29281327 891.55179943 -316 906 C-306.66081919 913.2784226 -296.66019435 915.69955288 -285 915 C-280.67924369 914.32813977 -276.44348052 913.37295826 -272.1875 912.375 C-270.99825928 912.10139648 -269.80901855 911.82779297 -268.58374023 911.54589844 C-216.87199916 899.4568086 -168.9258213 876.41579529 -122.78271484 850.55615234 C-117.70389792 847.71597169 -112.60495057 844.91207166 -107.50933838 842.10217285 C-105.63177987 841.06624075 -103.75501424 840.02888495 -101.87841797 838.99121094 C-95.22115735 835.31215826 -88.54738033 831.66626465 -81.84765625 828.06494141 C-59.4440835 816.01738257 -37.53306586 803.29128305 -15.95019531 789.83154297 C-13.265192 788.16463674 -10.56988171 786.51691877 -7.8671875 784.87890625 C7.48812905 775.54314079 22.37522664 765.50922959 37.28833008 755.48901367 C39.64051393 753.90949784 41.99647002 752.33602622 44.3581543 750.77075195 C50.21396646 746.88827966 56.00297734 742.9418855 61.6875 738.8125 C62.44659668 738.26207031 63.20569336 737.71164062 63.98779297 737.14453125 C77.05150167 727.62989135 89.75442416 717.69932359 102.23974609 707.43994141 C103.814459 706.1517782 105.40063669 704.87765975 106.98828125 703.60546875 C113.23818599 698.58564656 119.13099751 693.26185531 124.98828125 687.796875 C128.58472465 684.44393495 132.27589655 681.209862 136 678 C136.56847656 677.49082031 137.13695312 676.98164062 137.72265625 676.45703125 C148.60881189 666.81075666 158.23188333 662.82866259 172.92368793 662.87136555 C173.69529053 662.86961251 174.46689313 662.86785947 175.26187763 662.86605331 C177.84463186 662.86140538 180.42732951 662.8638557 183.01008606 662.86628723 C184.88166035 662.86441865 186.75323425 662.86211776 188.62480754 662.85942191 C193.76600491 662.85330333 198.90718603 662.85343757 204.04838622 662.85461628 C209.59383942 662.85482027 215.13928739 662.84930171 220.68473816 662.84455872 C231.54844886 662.83625139 242.41215413 662.83350384 253.27586774 662.83294634 C262.10570814 662.83247124 270.93554675 662.83041679 279.76538658 662.82724571 C300.7234397 662.81987213 321.68149185 662.81372091 342.63954639 662.81424427 C343.30965066 662.81425985 343.97975492 662.81427543 344.67016537 662.81429148 C348.06646333 662.81437459 351.46276129 662.81447363 354.85905925 662.81457619 C355.53356551 662.81459613 356.20807176 662.81461608 356.9030176 662.81463663 C358.26703323 662.81467706 359.63104885 662.81471886 360.99506447 662.81476202 C382.21684996 662.81537477 403.43861947 662.80786787 424.66040039 662.79418945 C448.50788355 662.77882495 472.35535629 662.77023611 496.20284575 662.77115268 C508.82780698 662.77148478 521.45275019 662.76873155 534.07770729 662.75797462 C544.82603414 662.74887537 555.57433479 662.74668967 566.32266382 662.75348405 C571.80636622 662.75675208 577.29001834 662.75679565 582.77371597 662.7481308 C587.79542173 662.74027755 592.81703726 662.74168526 597.83874079 662.75041493 C599.6536373 662.7519525 601.46854051 662.7501241 603.28342912 662.74455485 C623.43216258 662.68682946 636.33851553 666.46717365 651.0546875 680.90234375 C653.12521823 682.96975693 655.17856655 685.05139357 657.21630859 687.15112305 C661.6199077 691.68601444 666.20257183 695.88670999 671 700 C672.1567048 701.02145143 673.31171214 702.04482896 674.46484375 703.0703125 C683.64638589 711.17329603 693.16985685 718.70166187 703 726 C703.68868164 726.51498047 704.37736328 727.02996094 705.08691406 727.56054688 C731.62266566 747.34696062 760.13989036 764.46007877 788.42822266 781.58935547 C796.38533228 786.40785857 804.32684186 791.25076539 812.25 796.125 C813.31976074 796.78290527 814.38952148 797.44081055 815.49169922 798.11865234 C820.69273296 801.32372909 825.88079665 804.54744377 831.046875 807.80859375 C845.48811863 816.92228683 860.13370475 825.59759612 875 834 C876.1024707 834.62406738 877.20494141 835.24813477 878.34082031 835.89111328 C893.91824638 844.686577 909.65236286 853.13892709 925.59082031 861.26171875 C927.87090563 862.42429448 930.14889434 863.59099099 932.42480469 864.76171875 C968.35353325 883.23061412 1005.86573082 899.38729609 1045.14160156 909.27685547 C1048.08930226 910.02259252 1051.02409414 910.81036703 1053.9609375 911.59765625 C1064.08070777 914.21680159 1072.72440866 916.14966115 1083 913 C1083.96035156 912.72542969 1084.92070313 912.45085938 1085.91015625 912.16796875 C1095.13965854 909.18456705 1101.90817693 905.55166399 1106.875 897 C1140.7254102 828.35889042 1092.93772713 705.90579467 1076.10400581 638.34218597 C1048.77809825 528.65027342 1048.77809825 528.65027342 1041.25 473.875 C1041.0977446 472.77511749 1041.0977446 472.77511749 1040.94241333 471.65301514 C1038.1256072 451.08210295 1036.77196492 430.53437923 1036.16711426 409.78744507 C1035.29288098 380.29682646 1035.29288098 380.29682646 1032 351 C1031.80422363 349.73140137 1031.60844727 348.46280273 1031.40673828 347.15576172 C1019.8441865 273.86189581 990.65471321 203.12549172 939 149 C938.16855469 148.12730469 937.33710937 147.25460937 936.48046875 146.35546875 C930.68397659 140.41292324 924.5404302 135.1060462 918 130 C917.07574219 129.27039063 916.15148438 128.54078125 915.19921875 127.7890625 C873.05273706 95.28095078 823.71701344 81.95196827 771 83 C769.56019775 83.02682861 769.56019775 83.02682861 768.09130859 83.05419922 C730.71410945 83.84995311 693.00809157 87.39197882 659 104 C658.30277832 104.33902344 657.60555664 104.67804688 656.88720703 105.02734375 C637.40053944 114.62781341 621.42009097 127.2921275 607.13232422 143.63598633 C600.26244184 151.3685585 592.66990643 154.47711492 582.45533967 155.27788246 C578.31221379 155.38863085 574.17879889 155.40538411 570.03469849 155.38768005 C568.43404355 155.391859 566.83339158 155.39733958 565.23274505 155.40399987 C560.85882556 155.41839967 556.48509538 155.41422693 552.11116576 155.40683305 C547.38439546 155.4020901 542.65766546 155.41462118 537.9309082 155.42485046 C528.6803104 155.44202174 519.42978058 155.44288194 510.17917098 155.43763756 C502.65808448 155.43359151 495.13701802 155.43504459 487.61593246 155.44038582 C486.0085379 155.44150845 486.0085379 155.44150845 484.36867072 155.44265376 C482.1915261 155.44418529 480.01438148 155.44572363 477.83723687 155.44726873 C457.43339099 155.46098773 437.02958348 155.4555603 416.62573849 155.44408352 C397.97278664 155.43415182 379.319934 155.44709181 360.66699745 155.47101771 C341.49817576 155.49541945 322.32940026 155.50501393 303.16056335 155.49836498 C292.40510986 155.49487515 281.64973265 155.49708928 270.89429092 155.51461601 C261.73848102 155.5293514 252.58280113 155.52995592 243.42699374 155.5125451 C238.75901114 155.50404378 234.09126064 155.50186433 229.42329025 155.51719666 C225.14348588 155.53107958 220.86411169 155.52623458 216.58433197 155.50695742 C215.04271817 155.50320812 213.5010696 155.50608828 211.95948686 155.51656907 C198.66972579 155.60044058 187.31771595 154.24927664 177.515625 144.62109375 C176.68546875 143.75613281 175.8553125 142.89117188 175 142 C141.69495352 107.72022896 96.41325808 88.55325652 49 84 C48.12649902 83.91387451 47.25299805 83.82774902 46.35302734 83.73901367 C36.52721425 82.86645412 26.73129803 82.79892687 16.875 82.8125 C15.55591141 82.81390488 15.55591141 82.81390488 14.21017456 82.81533813 C-41.85361278 82.94422332 -97.17487265 95.51402707 -139.56835938 134.68310547 Z " fill="#FEFEFE" transform="translate(888,781)"/>
<path d="M0 0 C0.85043381 -0.00191345 1.70086761 -0.0038269 2.57707214 -0.00579834 C4.36624449 -0.0071515 6.15542694 -0.00351621 7.94458008 0.00488281 C10.65013263 0.01555465 13.35501521 0.00497845 16.06054688 -0.0078125 C31.28388471 -0.02395286 42.20442807 0.34484898 53.85546875 11.265625 C60.94213855 19.38936842 63.14640836 26.77473144 63.17431641 37.32202148 C63.18938484 38.64028679 63.18938484 38.64028679 63.20475769 39.98518372 C63.23546898 42.86902252 63.25259118 45.75276899 63.26953125 48.63671875 C63.2882526 50.64454435 63.30782673 52.65236216 63.32821655 54.66017151 C63.37944154 59.92902018 63.41911879 65.19789432 63.45635986 70.46685791 C63.49645997 75.84971368 63.54752488 81.23246433 63.59765625 86.61523438 C63.69430146 97.16529064 63.77874267 107.71540638 63.85546875 118.265625 C65.51344986 118.27109344 65.51344986 118.27109344 67.20492554 118.27667236 C77.6504474 118.31370468 88.0956767 118.37156723 98.54097557 118.44952774 C103.91030426 118.48894132 109.27947045 118.52115985 114.64892578 118.53662109 C119.83627126 118.55182792 125.02316981 118.58634499 130.2103157 118.63393402 C132.18368253 118.64870634 134.15711319 118.65666362 136.13053513 118.65750885 C150.63521619 118.66996294 160.71520591 119.41513575 171.59375 129.91796875 C181.68253044 140.390088 183.26025881 150.75659427 183.0254364 164.99436951 C182.98083654 166.85170039 182.93036941 168.70889893 182.87426758 170.56591797 C182.7929383 173.39168297 182.74940656 176.21635577 182.70898438 179.04296875 C182.44736349 191.40399387 181.56829455 201.19557924 172.69921875 210.515625 C161.24903627 221.38359482 148.13148417 220.72990431 133.19140625 220.77734375 C131.18786532 220.79420967 129.18433485 220.81236246 127.18081665 220.83174133 C121.93665841 220.87903971 116.6925426 220.90897916 111.44824219 220.93518066 C106.08520128 220.96508837 100.72230624 221.01158342 95.359375 221.05664062 C84.85814954 221.14244413 74.35689387 221.20989105 63.85546875 221.265625 C63.84960251 222.38569443 63.84373627 223.50576385 63.83769226 224.65977478 C63.78037026 235.23801884 63.70755916 245.8160592 63.61975384 256.39409542 C63.57511011 261.83180687 63.53584071 267.26944444 63.5090332 272.70727539 C63.4829405 277.95939347 63.44249577 283.21122629 63.39228249 288.46316719 C63.37565411 290.46248375 63.36411483 292.4618496 63.35785484 294.46122551 C63.34816986 297.27124501 63.3200583 300.08054133 63.2878418 302.89038086 C63.28927689 303.70894058 63.29071198 304.52750031 63.29219055 305.37086487 C63.131207 315.3607672 59.80922624 323.10312432 52.85546875 330.265625 C43.92940588 338.01138204 35.47421375 339.5717608 23.921875 339.6015625 C23.00389633 339.6082193 22.08591766 339.6148761 21.14012146 339.62173462 C19.21151717 339.63179485 17.28287854 339.63655371 15.35424805 339.63623047 C12.4289345 339.64060859 9.50512619 339.67701244 6.58007812 339.71484375 C4.6940155 339.72071263 2.80794582 339.72468154 0.921875 339.7265625 C-0.36921425 339.74811905 -0.36921425 339.74811905 -1.68638611 339.77011108 C-12.0090335 339.69368363 -19.51682966 335.74108501 -26.87890625 328.703125 C-34.34057161 320.67540227 -37.4347128 313.20424569 -37.46337891 302.32275391 C-37.47342453 301.4440564 -37.48347015 300.56535889 -37.49382019 299.66003418 C-37.52458199 296.77075829 -37.54166785 293.88157477 -37.55859375 290.9921875 C-37.57731103 288.98293263 -37.59688486 286.97368557 -37.61727905 284.96444702 C-37.66854706 279.68736381 -37.70820137 274.41025513 -37.74542236 269.13305664 C-37.7854954 263.74358853 -37.8365727 258.35422588 -37.88671875 252.96484375 C-37.98341494 242.39851164 -38.06783995 231.83211992 -38.14453125 221.265625 C-39.21226776 221.25753815 -40.28000427 221.24945129 -41.38009644 221.24111938 C-51.47235982 221.16343048 -61.56449215 221.07563481 -71.65658379 220.97809792 C-76.84427116 220.92828121 -82.03193961 220.88195046 -87.21972656 220.84375 C-92.23189437 220.80671173 -97.24389793 220.76030276 -102.25592422 220.70756149 C-104.16231513 220.68911564 -106.0687411 220.67397202 -107.97518539 220.66228104 C-135.01540024 220.49061544 -135.01540024 220.49061544 -147.14453125 209.265625 C-154.72282859 200.59341691 -156.45789084 192.94637554 -156.41015625 181.73046875 C-156.4120697 180.73358536 -156.41398315 179.73670197 -156.41595459 178.70960999 C-156.41731032 176.61101019 -156.41365681 174.51240184 -156.40527344 172.41381836 C-156.39455402 169.20993157 -156.40519552 166.006604 -156.41796875 162.80273438 C-156.41664727 160.75781127 -156.41408511 158.71288851 -156.41015625 156.66796875 C-156.41420471 155.714702 -156.41825317 154.76143524 -156.42242432 153.77928162 C-156.35299622 143.89082421 -153.17585489 135.25044842 -146.03125 128.171875 C-137.65992575 121.34758304 -129.16986433 119.13524695 -118.52050781 119.06030273 C-117.65185593 119.05040314 -116.78320404 119.04050354 -115.88822937 119.03030396 C-113.02056594 118.99874772 -110.15288595 118.97395473 -107.28515625 118.94921875 C-105.29546684 118.92864415 -103.30578176 118.90764755 -101.31610107 118.88624573 C-96.08172101 118.83107732 -90.84730184 118.78164495 -85.612854 118.73339844 C-80.27051314 118.68314524 -74.928229 118.6274791 -69.5859375 118.57226562 C-59.10551722 118.46474802 -48.62504766 118.36328882 -38.14453125 118.265625 C-38.13573189 116.60431297 -38.13573189 116.60431297 -38.12675476 114.90943909 C-38.06942988 104.4489227 -37.9966173 93.98861226 -37.90881634 83.52830601 C-37.8641748 78.15112889 -37.82490494 72.77402645 -37.7980957 67.39672852 C-37.77200078 62.20296346 -37.73155454 57.00948674 -37.68134499 51.8159008 C-37.6647181 49.83891333 -37.65317789 47.86187604 -37.64691734 45.88482857 C-37.63723072 43.1059389 -37.60911732 40.32778001 -37.5769043 37.54907227 C-37.57905693 36.33525879 -37.57905693 36.33525879 -37.58125305 35.09692383 C-37.42878431 25.73773112 -34.32130503 17.34265731 -28.14453125 10.265625 C-19.37069265 2.45771359 -11.50336595 -0.05827535 0 0 Z " fill="#FEFEFE" transform="translate(860.14453125,966.734375)"/>
<path d="M0 0 C15.90220567 12.89642478 25.14716813 26.45518756 28 47 C29.59409202 63.26847338 24.22384246 78.60802574 14.28125 91.24609375 C2.60367913 105.34316132 -11.81939953 112.99662805 -30 115 C-47.44305722 116.40011162 -62.85307731 110.1273068 -76 99 C-76.65613281 98.45730469 -77.31226563 97.91460938 -77.98828125 97.35546875 C-89.58708113 86.82322518 -96.13442357 71.5175669 -97.203125 56.0625 C-97.47213053 38.48747209 -92.47181793 22.90169359 -80.25976562 10.13208008 C-59.15598795 -11.04706823 -25.66833309 -18.25891735 0 0 Z " fill="#FFFFFF" transform="translate(1699,977)"/>
<path d="M0 0 C15.90220567 12.89642478 25.14716813 26.45518756 28 47 C29.62242387 63.55761344 24.08737326 79.21495765 13.70703125 91.8828125 C2.12180453 105.4866458 -12.48972153 113.17583735 -30.3125 114.9375 C-41.49165461 115.42304756 -53.18116919 113.5825528 -63 108 C-64.32064453 107.25943359 -64.32064453 107.25943359 -65.66796875 106.50390625 C-80.38938872 97.71166508 -90.95366315 84.44186176 -95.359375 67.8203125 C-99.13389079 51.20323687 -96.98368472 34.41191975 -88.12890625 19.69042969 C-84.71440934 14.57754548 -80.38231643 10.27750767 -76 6 C-75.41605469 5.39542969 -74.83210938 4.79085938 -74.23046875 4.16796875 C-55.12395929 -14.16460615 -21.15506472 -15.0484481 0 0 Z " fill="#FFFFFF" transform="translate(1699,1187)"/>
<path d="M0 0 C0.92554688 0.40089844 1.85109375 0.80179688 2.8046875 1.21484375 C17.7908317 8.53810118 28.68621085 21.78358191 35 37 C40.3093773 52.76904944 39.35061782 69.87320227 32.5 85 C23.63006915 101.53827009 9.53059378 113.15465875 -8.37890625 118.7421875 C-24.34211117 122.68572036 -42.18132099 120.22803187 -56.30859375 111.890625 C-71.2513487 101.39382762 -82.53874661 87.18948334 -86 69 C-88.38302277 52.10220219 -85.56253356 35.40020694 -75.1328125 21.5390625 C-56.55716949 -0.57479822 -28.09020993 -12.48019076 0 0 Z " fill="#FFFFFF" transform="translate(1580,1077)"/>
<path d="M0 0 C13.46578526 10.05240497 24.61863528 23.20571436 27.78466797 40.13525391 C29.51519998 52.73773248 29.15660375 65.53620141 24.08203125 77.30078125 C23.78167969 78.04070312 23.48132812 78.780625 23.171875 79.54296875 C16.64236607 94.07183277 3.42962555 105.5231057 -11.04296875 111.61328125 C-12.65940671 112.19993241 -14.28420085 112.76427991 -15.91796875 113.30078125 C-16.57539062 113.52636719 -17.2328125 113.75195312 -17.91015625 113.984375 C-33.16857335 118.28879227 -50.23622361 115.38453813 -63.97265625 108.0859375 C-79.04753793 98.94903972 -90.1928981 85.21446982 -94.79296875 68.11328125 C-98.01739999 51.95250912 -96.30995244 35.35552507 -87.80078125 20.98828125 C-79.80727092 9.57845737 -69.00526682 -0.50942814 -55.91796875 -5.69921875 C-55.20382812 -5.99699219 -54.4896875 -6.29476563 -53.75390625 -6.6015625 C-36.4847069 -12.54984228 -15.28264163 -9.55420836 0 0 Z " fill="#FFFFFF" transform="translate(1806.91796875,1081.69921875)"/>
</svg>
