<?xml version="1.0" encoding="UTF-8"?>
<svg version="1.1" xmlns="http://www.w3.org/2000/svg" width="1080" height="1080">
  <path d="M0 0 C7.35263865 2.02272285 15.99388775 3.23001687 23.33984375 0.59838867 C26.71619035 -1.53766734 28.16891677 -3.46788866 30.06640625 -6.91333008 C31.40234375 -8.33911133 31.40234375 -8.33911133 33.98583984 -8.42822266 C35.18200928 -8.38411255 35.18200928 -8.38411255 36.40234375 -8.33911133 C36.79985367 1.86854288 37.1913508 12.07641 37.57579803 22.28456497 C37.75461378 27.02795709 37.93526969 31.7712621 38.12060547 36.5144043 C38.96814332 58.24010228 39.67594005 79.91559476 39.40234375 101.66088867 C32.66455078 101.89819336 32.66455078 101.89819336 30.3046875 99.76245117 C27.74009223 95.58116032 25.33326308 91.33077349 22.96484375 87.03588867 C17.03375882 76.47382148 10.45174621 66.50452108 3.40234375 56.66088867 C2.98887695 56.08016602 2.57541016 55.49944336 2.14941406 54.90112305 C-3.93645814 46.40269281 -10.66777233 38.47427415 -17.59765625 30.66088867 C-18.18933594 29.9828418 -18.78101563 29.30479492 -19.390625 28.60620117 C-37.09806915 9.57866479 -63.61291263 -2.23779735 -89.31640625 -3.30004883 C-109.325495 -3.73064735 -129.54918525 2.1717523 -144.3046875 16.10620117 C-153.89746947 26.79390033 -158.04669388 40.03095604 -157.87109375 54.18432617 C-156.82195277 67.52340432 -152.42702254 80.36110825 -142.66015625 89.84838867 C-119.47601879 108.70013681 -87.26493945 115.82535583 -59.05334473 123.44674683 C-43.95358798 127.52642871 -29.10888194 131.7598714 -14.59765625 137.66088867 C-13.51919434 138.0848291 -13.51919434 138.0848291 -12.41894531 138.51733398 C16.92114978 150.09433981 42.65149862 171.37681647 55.40234375 200.66088867 C68.07077556 234.5481769 67.02605712 275.81560581 52.5859375 308.98120117 C38.90639106 338.52017558 13.78368716 361.29687473 -16.59765625 372.66088867 C-35.69983248 379.6509438 -55.29775679 381.82062846 -75.55871868 381.79231644 C-76.94836875 381.79396942 -78.33801835 381.79605721 -79.72766718 381.79853654 C-83.5350235 381.80406999 -87.34235718 381.8034369 -91.14971621 381.80175895 C-95.29654656 381.8010249 -99.44337068 381.80605773 -103.59019834 381.81033397 C-111.81024427 381.81789835 -120.03028371 381.82010624 -128.25033276 381.82066302 C-138.09914569 381.82157825 -147.94795265 381.82825063 -157.79676301 381.83500985 C-181.60327053 381.85105838 -205.4097774 381.85697246 -229.21628936 381.8617586 C-240.48689937 381.86409635 -251.75750887 381.86769927 -263.02811848 381.87145397 C-301.63515276 381.88429036 -340.24218676 381.89500797 -378.84922314 381.89845657 C-381.27218438 381.8986782 -383.69514562 381.89889999 -386.11810686 381.89912193 C-388.54682294 381.89934256 -390.97553901 381.89956305 -393.40425509 381.89978337 C-398.27642071 381.90022592 -403.14858633 381.90067303 -408.02075195 381.90112305 C-409.22876302 381.90123244 -410.43677409 381.90134183 -411.68139156 381.90145453 C-450.81618469 381.90508195 -489.95095926 381.92098963 -529.08574528 381.94431341 C-570.49396639 381.96894681 -611.9021769 381.9826311 -653.31040555 381.98382449 C-657.86224926 381.98399593 -662.41409296 381.98421136 -666.96593666 381.98445892 C-668.08666896 381.98451469 -669.20740126 381.98457046 -670.36209515 381.98462792 C-688.34838024 381.98577551 -706.3346462 381.99677294 -724.32092485 382.01134598 C-742.42605583 382.02576076 -760.53116246 382.02892003 -778.63629761 382.020906 C-789.37198543 382.01647263 -800.10759429 382.02021766 -810.84327163 382.03614451 C-818.03983226 382.04597786 -825.23633826 382.04463765 -832.43289853 382.03470828 C-836.51684963 382.02937556 -840.6006504 382.02840951 -844.68458834 382.041217 C-871.91456549 382.12117858 -898.90876563 380.79220834 -925.66015625 375.28588867 C-927.2176948 374.9785106 -928.77548081 374.67238412 -930.33349609 374.36743164 C-940.03144969 372.45423763 -949.7135172 370.43455865 -959.33618164 368.17114258 C-971.65432086 365.18941234 -971.65432086 365.18941234 -983.8125 367.30541992 C-987.58573233 370.17043441 -989.46541066 374.53220931 -991.59765625 378.66088867 C-992.25765625 379.65088867 -992.91765625 380.64088867 -993.59765625 381.66088867 C-996.72265625 381.84838867 -996.72265625 381.84838867 -999.59765625 381.66088867 C-1000.45614304 378.64126518 -1000.77746713 375.84272303 -1000.9077301 372.70927429 C-1000.95117554 371.71260742 -1000.99462097 370.71594055 -1001.03938293 369.68907166 C-1001.08254135 368.60171219 -1001.12569977 367.51435272 -1001.17016602 366.39404297 C-1001.2190799 365.24402802 -1001.26799377 364.09401306 -1001.31838989 362.90914917 C-1001.47930491 359.10129204 -1001.63425998 355.29321757 -1001.7890625 351.48510742 C-1001.89941424 348.83957097 -1002.01009064 346.19404805 -1002.12107849 343.54853821 C-1002.35328053 337.99959394 -1002.58235165 332.45052762 -1002.80932617 326.90136719 C-1003.10010973 319.79260141 -1003.39608736 312.68406192 -1003.69371128 305.57557964 C-1003.92250101 300.11009186 -1004.14935332 294.64452417 -1004.37568474 289.1789341 C-1004.48424786 286.55829501 -1004.59309835 283.93766782 -1004.7022419 281.31705284 C-1004.85452886 277.65006852 -1005.00483971 273.98300865 -1005.15454102 270.31591797 C-1005.22231499 268.69398781 -1005.22231499 268.69398781 -1005.29145813 267.03929138 C-1005.49885355 261.90807981 -1005.64897155 256.79629225 -1005.59765625 251.66088867 C-1002.62765625 251.66088867 -999.65765625 251.66088867 -996.59765625 251.66088867 C-995.57671875 253.62541992 -995.57671875 253.62541992 -994.53515625 255.62963867 C-982.03696026 279.30535064 -967.36876752 301.49743903 -949.02734375 321.04370117 C-947.0798327 323.14150247 -945.2267759 325.2639864 -943.41015625 327.47338867 C-925.3553623 348.69032167 -895.05543531 365.6275797 -867.59765625 369.66088867 C-865.63921421 369.74887504 -863.67832094 369.79077765 -861.71790576 369.79380053 C-860.55656662 369.79799369 -859.39522749 369.80218685 -858.19869626 369.80650708 C-856.29521666 369.80583062 -856.29521666 369.80583062 -854.35328293 369.8051405 C-852.98057206 369.80819607 -851.6078621 369.81168546 -850.23515332 369.81556901 C-846.45162065 369.8250048 -842.6681039 369.82824586 -838.88456106 369.83049679 C-834.77244603 369.83402586 -830.66034328 369.8432801 -826.54823613 369.85180503 C-819.33710677 369.86595156 -812.12597938 369.87637917 -804.9148407 369.88438606 C-794.19113753 369.89629659 -783.46744875 369.9138419 -772.74375541 369.93246445 C-752.47556633 369.96743549 -732.2073712 369.99557371 -711.93916878 370.02148589 C-696.28442789 370.04151545 -680.62968993 370.06311626 -664.9749527 370.08582497 C-660.47086693 370.09233984 -655.96678115 370.09884664 -651.46269536 370.10535079 C-650.34298946 370.10696805 -649.22328357 370.10858531 -648.06964719 370.11025158 C-616.56368145 370.15569319 -585.0577133 370.19892716 -553.55173874 370.23779583 C-551.76918431 370.23999675 -551.76918431 370.23999675 -549.95061868 370.24224214 C-543.92732135 370.24967518 -537.90402401 370.25709271 -531.88072667 370.26450708 C-530.68445876 370.26598007 -529.48819086 370.26745307 -528.25567242 370.2689707 C-525.83652328 370.27194937 -523.41737415 370.27492666 -520.99822501 370.27790257 C-483.37608204 370.32424244 -445.75395837 370.3787452 -408.13183594 370.43945312 C-365.87114034 370.50764007 -323.61044225 370.5689816 -281.3497231 370.62070304 C-276.84186503 370.62624494 -272.334007 370.63181324 -267.82614899 370.63739967 C-266.16120843 370.63945692 -266.16120843 370.63945692 -264.46263271 370.64155572 C-246.60813243 370.66377635 -228.75364828 370.69249209 -210.8991613 370.72347129 C-192.94714332 370.75443898 -174.99512759 370.77782257 -157.04308972 370.79357442 C-146.38225489 370.80314148 -135.72146259 370.81828073 -125.06064859 370.84150888 C-117.93168717 370.85647996 -110.80274223 370.86404614 -103.67376537 370.86569602 C-99.61686605 370.86684066 -95.56003935 370.87108901 -91.50316009 370.88437899 C-63.44434103 371.65180791 -63.44434103 371.65180791 -36.22265625 365.97338867 C-35.48281494 365.71283691 -34.74297363 365.45228516 -33.98071289 365.18383789 C-17.3638736 359.09045502 -6.18006801 349.55547483 1.40234375 333.66088867 C7.0700371 320.78495445 5.96093497 302.69776886 1.40234375 289.66088867 C-3.60876105 276.89220816 -11.8875859 267.66602004 -23.59765625 260.66088867 C-24.51224609 260.11247314 -24.51224609 260.11247314 -25.4453125 259.55297852 C-47.76156356 246.42229418 -73.24267331 239.47112446 -97.9921875 232.40307617 C-129.78824213 223.29869351 -159.6811216 212.2742026 -183.59765625 188.66088867 C-184.55478516 187.81204102 -184.55478516 187.81204102 -185.53125 186.94604492 C-204.19903983 170.00276223 -211.72168084 142.487207 -213.43359375 118.23510742 C-215.10705557 81.77754626 -206.59343265 51.31189292 -181.9765625 23.72338867 C-170.64740685 11.87238484 -157.53895055 3.27111394 -142.59765625 -3.33911133 C-140.96376953 -4.06227539 -140.96376953 -4.06227539 -139.296875 -4.80004883 C-94.74787681 -23.10785631 -44.37188156 -13.25088643 0 0 Z " fill="#FEFEFE" transform="translate(1010.59765625,395.339111328125)"/>
  <path d="M0 0 C21.63762639 -0.04694256 43.27524425 -0.08209702 64.91291142 -0.10362434 C74.96205928 -0.11389026 85.01117532 -0.12785977 95.06030273 -0.15087891 C103.83000046 -0.17095754 112.59967511 -0.18375036 121.3693952 -0.18817699 C126.00299182 -0.19076015 130.63652248 -0.19673105 135.27009773 -0.21146011 C158.33553454 -0.2819317 181.25582891 -0.22541639 204.0625 3.75 C205.04017334 3.91773926 206.01784668 4.08547852 207.02514648 4.25830078 C245.32778882 11.14852774 279.75590942 27.10426485 302.83203125 59.578125 C320.90165812 86.8253276 326.87094476 118.76616979 328 151 C328.04302246 152.22420654 328.04302246 152.22420654 328.08691406 153.47314453 C329.42725568 199.07020909 321.04241289 246.53191529 288.98779297 280.79980469 C287.66054528 282.20178169 286.33037315 283.60098848 285 285 C284.14341797 285.95326172 284.14341797 285.95326172 283.26953125 286.92578125 C252.74376568 319.80571897 201.52667349 328.75924324 159 331 C153.60428797 331.12674114 148.21160357 331.12737387 142.81494141 331.11352539 C141.24639386 331.11324252 139.67784618 331.11340319 138.10929871 331.1139679 C133.89744025 331.11425199 129.68561093 331.10841856 125.47375917 331.10139394 C121.05488519 331.09509526 116.63601035 331.09455149 112.21713257 331.09336853 C103.87004896 331.09027427 95.52297861 331.08208684 87.17590082 331.07201904 C77.66427165 331.06079838 68.15264181 331.05533252 58.64100766 331.05032361 C39.09399762 331.03990241 19.54699988 331.02234027 0 331 C0 328.69 0 326.38 0 324 C9.9 323.67 19.8 323.34 30 323 C30 219.38 30 115.76 30 9 C15.15 8.505 15.15 8.505 0 8 C0 5.36 0 2.72 0 0 Z M122 9 C121.9018791 10.67235219 121.87444427 12.3488807 121.87415886 14.02410889 C121.87155111 15.11926945 121.86894336 16.21443001 121.86625659 17.34277725 C121.86848732 18.56094006 121.87071804 19.77910286 121.87301636 21.03417969 C121.87145637 22.31656399 121.86989638 23.59894829 121.86828911 24.92019272 C121.86409133 28.49610571 121.86618849 32.07199223 121.86927533 35.64790535 C121.8715274 39.49797882 121.86805079 43.34804757 121.86529541 47.19812012 C121.86083663 54.74689801 121.86181466 62.29566599 121.86470805 69.84444427 C121.86696166 75.97665997 121.86727479 82.10887288 121.86618423 88.24108887 C121.866031 89.11212808 121.86587777 89.9831673 121.86571989 90.88060164 C121.86540018 92.64981238 121.86507597 94.41902312 121.8647473 96.18823385 C121.86189219 112.79845404 121.86518001 129.40866871 121.87054767 146.018888 C121.87501573 160.28733434 121.87423981 174.55577255 121.86962891 188.82421875 C121.86428368 205.37289184 121.86216689 221.92156009 121.86524117 238.47023392 C121.86555974 240.23312632 121.86587411 241.99601873 121.86618423 243.75891113 C121.86633851 244.62640606 121.86649279 245.49390098 121.86665174 246.38768363 C121.86751705 252.51622874 121.86605371 258.64477079 121.86370468 264.77331543 C121.86090706 272.23665629 121.86164414 279.69998662 121.86698543 287.16332626 C121.86962295 290.97501454 121.87062664 294.78668524 121.86733627 298.59837341 C121.86383129 302.72087118 121.86800144 306.84332413 121.87301636 310.96582031 C121.87078564 312.18398312 121.86855491 313.40214592 121.86625659 314.65722275 C121.86886434 315.75238331 121.87147209 316.84754387 121.87415886 317.97589111 C121.87432121 318.92882679 121.87448356 319.88176247 121.87465084 320.86357498 C121.76159237 322.98308451 121.76159237 322.98308451 123 324 C146.67366445 325.06481964 172.00181998 324.17781419 192 310 C192.6909375 309.55140625 193.381875 309.1028125 194.09375 308.640625 C214.65566494 294.5636217 221.90948325 266.27210139 226.37890625 243.26220703 C228.05112008 234.21314926 229.29609232 225.17683865 230 216 C230.08182022 214.96732498 230.16364044 213.93464996 230.24794006 212.87068176 C230.95217534 203.27370062 231.16326581 193.73374378 231.16796875 184.11328125 C231.17119925 182.52027866 231.1745645 180.92727634 231.17805481 179.33427429 C231.18399479 176.01052161 231.18590036 172.68679471 231.18530273 169.36303711 C231.18522201 166.01923145 231.19208768 162.67556434 231.20581055 159.33178711 C233.06085702 90.45420674 233.06085702 90.45420674 205 30 C204.22269531 29.08734375 204.22269531 29.08734375 203.4296875 28.15625 C190.97748129 14.44077649 170.89083827 9.27791702 153 8 C147.62405913 7.80556294 142.25414549 7.74467679 136.875 7.75 C136.1941333 7.75059418 135.5132666 7.75118835 134.81176758 7.75180054 C127.95334022 7.10383207 127.95334022 7.10383207 122 9 Z " fill="#FEFEFE" transform="translate(71,376)"/>
  <path d="M0 0 C36.63 0 73.26 0 111 0 C111 1.98 111 3.96 111 6 C103.74 6.33 96.48 6.66 89 7 C89.73962573 12.17738008 90.54106011 16.09862923 92.1862793 20.93701172 C92.40806256 21.59477569 92.62984583 22.25253965 92.8583498 22.93023586 C93.59115434 25.09874098 94.33262473 27.26417413 95.07421875 29.4296875 C95.59566034 30.96687765 96.11656385 32.50425042 96.63696289 34.04179382 C98.02620026 38.14134556 99.42295586 42.23829801 100.82125473 46.33476639 C102.26970544 50.58229686 103.71124068 54.83217312 105.15356445 59.08178711 C108.19341762 68.03416046 111.24288073 76.98323953 114.29473877 85.93152618 C115.30680451 88.89983268 116.31753374 91.86859357 117.328125 94.83740234 C120.40842188 103.88585868 123.49598911 112.93178429 126.59407043 121.97416687 C129.70767643 131.06255195 132.81021219 140.1547166 135.91372681 149.24655151 C137.41874884 153.65535492 138.92422633 158.06400278 140.4296875 162.47265625 C140.93213123 163.944091 141.43457289 165.41552646 141.93701172 166.88696289 C142.28779785 167.91426514 142.63858398 168.94156738 143 170 C143.66 170 144.32 170 145 170 C148.53133965 157.86798527 152.05260685 145.7330971 155.56108856 133.59445095 C157.19057825 127.95792376 158.82350438 122.32244023 160.46435547 116.68920898 C162.04809839 111.25156238 163.62272035 105.81135032 165.19108582 100.36924934 C165.79067218 98.29472203 166.39352437 96.22113571 166.99971008 94.14852715 C167.84899891 91.24264578 168.68655435 88.33361823 169.52148438 85.42358398 C169.77395432 84.56978149 170.02642426 83.715979 170.2865448 82.83630371 C172.31914753 75.67374093 172.57380899 69.91603743 170.27172852 62.72924805 C169.89456192 61.53498703 169.51739532 60.34072601 169.12879944 59.11027527 C168.71243286 57.82733723 168.29579543 56.54448707 167.87890625 55.26171875 C167.4544827 53.93156582 167.03090702 52.60114209 166.60813904 51.27046204 C165.49798307 47.78476944 164.37550069 44.30316524 163.25061035 40.82220459 C162.3323803 37.97360639 161.42297524 35.12222843 160.51400852 32.27066326 C159.43016681 28.87093245 158.34266891 25.47237647 157.25390625 22.07421875 C157.04618654 21.42578192 156.83846684 20.77734509 156.62445259 20.10925865 C156.03747161 18.2801393 155.44763817 16.45193606 154.85766602 14.6237793 C154.52235367 13.5834404 154.18704132 12.5431015 153.84156799 11.47123718 C153.07444442 9.03638306 153.07444442 9.03638306 152 7 C145.73 6.67 139.46 6.34 133 6 C133 4.02 133 2.04 133 0 C167.98 0 202.96 0 239 0 C239 1.98 239 3.96 239 6 C233.06 6.33 227.12 6.66 221 7 C221.72841969 13.46362395 221.72841969 13.46362395 223.26489258 19.48242188 C223.52138077 20.27880066 223.77786896 21.07517944 224.04212952 21.89569092 C224.32342209 22.74480042 224.60471466 23.59390991 224.89453125 24.46875 C225.34335915 25.85480438 225.34335915 25.85480438 225.80125427 27.26885986 C226.45448636 29.2844976 227.11082353 31.29913108 227.76989746 33.31286621 C229.59294087 38.88573127 231.39097154 44.46667301 233.19140625 50.046875 C233.57658417 51.23895569 233.96176208 52.43103638 234.35861206 53.65924072 C238.86693915 67.63861929 243.23790741 81.6606047 247.60639572 95.68417358 C249.30105875 101.12366453 250.99770578 106.56253739 252.69407845 112.00149536 C253.1048323 113.31851844 253.51554202 114.63555528 253.92620659 115.9526062 C257.67550112 127.97641169 261.4518159 139.99155169 265.25 152 C265.6295282 153.1999762 265.6295282 153.1999762 266.01672363 154.42419434 C267.34303955 158.61658745 268.67071966 162.80854569 270 167 C270.66 167 271.32 167 272 167 C281.24211363 131.46574289 290.34488283 95.89647825 299.35620117 60.30300903 C300.45376214 55.96787458 301.55296783 51.63316234 302.65356445 47.29879761 C303.96479168 42.13420702 305.27239886 36.96871323 306.57719421 31.80249405 C307.06443537 29.87556898 307.55287491 27.9489465 308.04255676 26.02264023 C308.71530608 23.37505541 309.38362006 20.72639016 310.05078125 18.07739258 C310.25009499 17.29713683 310.44940872 16.51688108 310.65476227 15.71298122 C311.40204678 12.7296745 312 10.08880089 312 7 C301.11 6.67 290.22 6.34 279 6 C278.67 4.35 278.34 2.7 278 1 C279 0 279 0 281.66383362 -0.12025452 C283.4458744 -0.1169236 283.4458744 -0.1169236 285.26391602 -0.11352539 C286.2443689 -0.11374443 286.2443689 -0.11374443 287.24462891 -0.1139679 C289.41442128 -0.11326883 291.58412879 -0.10547678 293.75390625 -0.09765625 C295.25463311 -0.09579205 296.75536057 -0.09436816 298.25608826 -0.09336853 C302.21318226 -0.08954352 306.17023978 -0.0797134 310.12731934 -0.06866455 C314.16234849 -0.05845006 318.19738353 -0.05387083 322.23242188 -0.04882812 C330.15496469 -0.03809111 338.07747781 -0.0210149 346 0 C346.38218767 1.65614657 346.71395102 3.32457024 347 5 C345.34920558 6.65079442 343.36263821 6.22549447 341.08984375 6.31640625 C340.10048828 6.35830078 339.11113281 6.40019531 338.09179688 6.44335938 C337.05087891 6.48267578 336.00996094 6.52199219 334.9375 6.5625 C333.89271484 6.60568359 332.84792969 6.64886719 331.77148438 6.69335938 C329.18113116 6.79981225 326.59067814 6.9018276 324 7 C323.72169846 8.053582 323.44339691 9.107164 323.15666199 10.19267273 C319.50263282 24.02490542 315.84590701 37.85642455 312.1875 51.6875 C311.88860115 52.81752945 311.5897023 53.9475589 311.28174591 55.11183167 C300.86544448 94.48854195 290.38281049 133.84721207 279.84686947 173.19207287 C279.30154831 175.2285482 278.75629817 177.26504255 278.21112156 179.30155659 C276.9123851 184.15293669 275.61280023 189.00408533 274.31117249 193.85469055 C271.94446679 202.68125868 269.59829596 211.51231714 267.30175781 220.35742188 C266.88149249 221.96985278 266.46113582 223.58225989 266.04067993 225.19464111 C265.26789763 228.15852065 264.50392953 231.12447394 263.74520874 234.09197998 C263.40681587 235.39246373 263.06810195 236.692864 262.72900391 237.99316406 C262.44119049 239.11273499 262.15337708 240.23230591 261.85684204 241.38580322 C261 244 261 244 259 246 C254.37334244 246.51553363 249.71458457 246.41682407 245.0625 246.4375 C243.76119141 246.47037109 242.45988281 246.50324219 241.11914062 246.53710938 C239.25225586 246.54774414 239.25225586 246.54774414 237.34765625 246.55859375 C236.20304932 246.57204834 235.05844238 246.58550293 233.87915039 246.59936523 C231 246 231 246 229.29589844 244.01635742 C227.62515792 240.12751058 226.23033686 236.20226693 224.91796875 232.1796875 C224.62773331 231.30610092 224.33749786 230.43251434 224.03846741 229.53245544 C223.08217339 226.64857418 222.13473141 223.76186942 221.1875 220.875 C220.5124605 218.83213781 219.83699798 216.78941535 219.16113281 214.74682617 C213.96654387 199.02594726 208.83746025 183.28346963 203.72433472 167.53593445 C199.16403958 153.49112392 194.58198135 139.45347078 189.98986816 125.41903687 C189.12392915 122.77234074 188.25880646 120.12537997 187.39440918 117.47817993 C186.18525959 113.77524549 184.97361771 110.07312936 183.76171875 106.37109375 C183.39574081 105.24929718 183.02976288 104.12750061 182.6526947 102.97171021 C182.31701981 101.94778168 181.98134491 100.92385315 181.63549805 99.86889648 C181.34241257 98.97267075 181.04932709 98.07644501 180.74736023 97.15306091 C180.04766368 94.98767485 180.04766368 94.98767485 179 93 C178.34 93 177.68 93 177 93 C176.68474365 94.09308975 176.3694873 95.1861795 176.04467773 96.31239319 C167.89789494 124.55899871 159.74570844 152.80404071 151.58634281 181.04701424 C150.22312736 185.76569006 148.86003459 190.48440109 147.49761963 195.20330811 C145.10753516 203.48166656 142.71516309 211.75934578 140.31616211 220.03512573 C139.64835212 222.34056064 138.98168083 224.64632571 138.31616211 226.9524231 C137.41825955 230.06292838 136.51639439 233.17225432 135.61328125 236.28125 C135.35734695 237.17122177 135.10141266 238.06119354 134.83772278 238.97813416 C133.11439604 244.88560396 133.11439604 244.88560396 132 246 C127.38264444 246.33781357 122.75312228 246.3250399 118.125 246.375 C116.81917969 246.41238281 115.51335937 246.44976563 114.16796875 246.48828125 C112.91886719 246.49988281 111.66976562 246.51148438 110.3828125 246.5234375 C109.23184082 246.54325684 108.08086914 246.56307617 106.89501953 246.58349609 C104 246 104 246 102.44694519 243.78735352 C101.08291017 241.15971576 99.97262619 238.59653108 98.95385742 235.81884766 C98.57827194 234.80235138 98.20268646 233.7858551 97.8157196 232.73855591 C97.41633682 231.64147308 97.01695404 230.54439026 96.60546875 229.4140625 C95.97007927 227.68686478 95.97007927 227.68686478 95.32185364 225.92477417 C94.17664389 222.80790309 93.03611171 219.6894006 91.89788818 216.56997681 C90.94360709 213.95724388 89.98543389 211.34594553 89.02728081 208.73463058 C83.35195372 193.26563633 77.73506848 177.77610557 72.19979858 162.25640869 C66.74386005 146.96334414 61.12666181 131.73095846 55.5 116.5 C49.4750455 100.19011918 43.47480073 83.87360489 37.625 67.5 C33.02460856 54.62795022 28.39390022 41.76757874 23.70892334 28.92602539 C23.03250043 27.07108662 22.35707161 25.21578502 21.68267822 23.36010742 C20.75347684 20.80414934 19.82065106 18.24954506 18.88671875 15.6953125 C18.60828629 14.92764557 18.32985382 14.15997864 18.04298401 13.36904907 C16.97413359 9.92147042 16.97413359 9.92147042 15 7 C12.47403741 6.76346477 9.96892793 6.57826308 7.4375 6.4375 C6.72658203 6.39431641 6.01566406 6.35113281 5.28320312 6.30664062 C3.52238088 6.20028223 1.7612168 6.09961154 0 6 C0 4.02 0 2.04 0 0 Z " fill="#FEFEFE" transform="translate(425,413)"/>
</svg>
